<?xml version="1.0" encoding="utf-8"?>
<!-- Generator: Adobe Illustrator 24.0.3, SVG Export Plug-In . SVG Version: 6.00 Build 0)  -->
<!DOCTYPE svg PUBLIC "-//W3C//DTD SVG 1.1//EN" "http://www.w3.org/Graphics/SVG/1.1/DTD/svg11.dtd" [
	<!ENTITY ns_extend "http://ns.adobe.com/Extensibility/1.0/">
	<!ENTITY ns_ai "http://ns.adobe.com/AdobeIllustrator/10.0/">
	<!ENTITY ns_graphs "http://ns.adobe.com/Graphs/1.0/">
	<!ENTITY ns_vars "http://ns.adobe.com/Variables/1.0/">
	<!ENTITY ns_imrep "http://ns.adobe.com/ImageReplacement/1.0/">
	<!ENTITY ns_sfw "http://ns.adobe.com/SaveForWeb/1.0/">
	<!ENTITY ns_custom "http://ns.adobe.com/GenericCustomNamespace/1.0/">
	<!ENTITY ns_adobe_xpath "http://ns.adobe.com/XPath/1.0/">
]>
<svg version="1.1" id="Layer_1" xmlns:x="&ns_extend;" xmlns:i="&ns_ai;" xmlns:graph="&ns_graphs;"
	 xmlns="http://www.w3.org/2000/svg" xmlns:xlink="http://www.w3.org/1999/xlink" x="0px" y="0px" viewBox="0 0 541.6 767.9"
	 style="enable-background:new 0 0 541.6 767.9;" xml:space="preserve">
<style type="text/css">
	.st0{fill:#147AC9;}
</style>
<metadata>
	<sfw  xmlns="&ns_sfw;">
		<slices></slices>
		<sliceSourceBounds  bottomLeftOrigin="true" height="767.9" width="541.6" x="412.2" y="0.1"></sliceSourceBounds>
	</sfw>
</metadata>
<g>
	<path class="st0" d="M495.3,0h-449C20.8,0,0,20.8,0,46.3v675.3c0,25.5,20.8,46.3,46.3,46.3h366.9c4.3,0,8.4-1.7,11.4-4.7L536.8,651
		c3-3,4.7-7.1,4.7-11.4V46.3C541.6,20.8,520.8,0,495.3,0L495.3,0z M429.3,712.9v-43.2c0-7.8,6.3-14.1,14.1-14.1h43.2L429.3,712.9
		L429.3,712.9z M46.3,32.2h449c7.8,0,14.1,6.3,14.1,14.1v49.8H32.2V46.3C32.2,38.5,38.5,32.2,46.3,32.2L46.3,32.2z M32.2,721.6
		V128.4h477.1v495.1h-66c-25.5,0-46.3,20.8-46.3,46.3v66H46.3C38.5,735.7,32.2,729.4,32.2,721.6L32.2,721.6z"/>
	<path class="st0" d="M98.6,247.7h211.1c8.9,0,16.1-7.2,16.1-16.1s-7.2-16.1-16.1-16.1H98.6c-8.9,0-16.1,7.2-16.1,16.1
		S89.7,247.7,98.6,247.7L98.6,247.7z"/>
	<path class="st0" d="M374.2,247.7h54.5c8.9,0,16.1-7.2,16.1-16.1s-7.2-16.1-16.1-16.1h-54.5c-8.9,0-16.1,7.2-16.1,16.1
		S365.3,247.7,374.2,247.7L374.2,247.7z"/>
	<path class="st0" d="M98.6,375.7h211.1c8.9,0,16.1-7.2,16.1-16.1s-7.2-16.1-16.1-16.1H98.6c-8.9,0-16.1,7.2-16.1,16.1
		S89.7,375.7,98.6,375.7L98.6,375.7z"/>
	<path class="st0" d="M374.2,375.7h54.5c8.9,0,16.1-7.2,16.1-16.1s-7.2-16.1-16.1-16.1h-54.5c-8.9,0-16.1,7.2-16.1,16.1
		S365.3,375.7,374.2,375.7L374.2,375.7z"/>
	<path class="st0" d="M325.8,487.6c0-8.9-7.2-16.1-16.1-16.1H98.6c-8.9,0-16.1,7.2-16.1,16.1s7.2,16.1,16.1,16.1h211.1
		C318.6,503.7,325.8,496.5,325.8,487.6z"/>
	<path class="st0" d="M374.2,503.7h54.5c8.9,0,16.1-7.2,16.1-16.1s-7.2-16.1-16.1-16.1h-54.5c-8.9,0-16.1,7.2-16.1,16.1
		S365.3,503.7,374.2,503.7L374.2,503.7z"/>
	<path class="st0" d="M428.7,595.8c8.9,0,16.1-7.2,16.1-16.1s-7.2-16.1-16.1-16.1H275.2c-8.9,0-16.1,7.2-16.1,16.1
		s7.2,16.1,16.1,16.1H428.7L428.7,595.8z"/>
</g>
</svg>
