<?xml version="1.0" encoding="utf-8"?>
<!-- Generator: Adobe Illustrator 24.0.3, SVG Export Plug-In . SVG Version: 6.00 Build 0)  -->
<!DOCTYPE svg PUBLIC "-//W3C//DTD SVG 1.1//EN" "http://www.w3.org/Graphics/SVG/1.1/DTD/svg11.dtd" [
	<!ENTITY ns_extend "http://ns.adobe.com/Extensibility/1.0/">
	<!ENTITY ns_ai "http://ns.adobe.com/AdobeIllustrator/10.0/">
	<!ENTITY ns_graphs "http://ns.adobe.com/Graphs/1.0/">
	<!ENTITY ns_vars "http://ns.adobe.com/Variables/1.0/">
	<!ENTITY ns_imrep "http://ns.adobe.com/ImageReplacement/1.0/">
	<!ENTITY ns_sfw "http://ns.adobe.com/SaveForWeb/1.0/">
	<!ENTITY ns_custom "http://ns.adobe.com/GenericCustomNamespace/1.0/">
	<!ENTITY ns_adobe_xpath "http://ns.adobe.com/XPath/1.0/">
]>
<svg version="1.1" id="Layer_1" xmlns:x="&ns_extend;" xmlns:i="&ns_ai;" xmlns:graph="&ns_graphs;"
	 xmlns="http://www.w3.org/2000/svg" xmlns:xlink="http://www.w3.org/1999/xlink" x="0px" y="0px" viewBox="0 0 122.1 78.9"
	 style="enable-background:new 0 0 122.1 78.9;" xml:space="preserve">
<style type="text/css">
	.st0{fill:url(#SVGID_1_);stroke:#616B6D;stroke-width:4.1216;stroke-linejoin:round;}
	.st1{fill:url(#SVGID_2_);stroke:#000000;stroke-width:4.1216;stroke-linejoin:round;}
	.st2{fill:url(#SVGID_3_);stroke:#000000;stroke-width:4.1216;stroke-linejoin:round;}
	.st3{fill:url(#SVGID_4_);stroke:#000000;stroke-width:4.1216;stroke-linejoin:round;}
	.st4{fill:#C6D2D7;stroke:#000000;stroke-width:4.1216;stroke-linejoin:round;}
</style>
<metadata>
	<sfw  xmlns="&ns_sfw;">
		<slices></slices>
		<sliceSourceBounds  bottomLeftOrigin="true" height="78.9" width="122.1" x="4.5" y="3.4"></sliceSourceBounds>
	</sfw>
</metadata>
<radialGradient id="SVGID_1_" cx="652.0629" cy="-310.5786" r="91.4701" gradientTransform="matrix(1.2839 0 0 -0.8121 -773.51 -212.8352)" gradientUnits="userSpaceOnUse">
	<stop  offset="0" style="stop-color:#FFFFFF"/>
	<stop  offset="1" style="stop-color:#585858"/>
</radialGradient>
<path class="st0" d="M2.1,2.1h118v74.6H2.1L2.1,2.1z"/>
<linearGradient id="SVGID_2_" gradientUnits="userSpaceOnUse" x1="31.5597" y1="69.0657" x2="31.5597" y2="7.8977" gradientTransform="matrix(1 0 0 -1 0 82.0434)">
	<stop  offset="0" style="stop-color:#DCE7EC"/>
	<stop  offset="1" style="stop-color:#839297"/>
</linearGradient>
<path class="st1" d="M2.1,2.1V71l0,5.6l59-37.2L2.1,2.1L2.1,2.1L2.1,2.1z"/>
<linearGradient id="SVGID_3_" gradientUnits="userSpaceOnUse" x1="90.5459" y1="72.5007" x2="90.5459" y2="0.1007" gradientTransform="matrix(1 0 0 -1 0 82.0434)">
	<stop  offset="0" style="stop-color:#DCE7EC"/>
	<stop  offset="1" style="stop-color:#839297"/>
</linearGradient>
<path class="st2" d="M120,2.3v68.9l0,5.6L61,39.5L120,2.3L120,2.3L120,2.3z"/>
<linearGradient id="SVGID_4_" gradientUnits="userSpaceOnUse" x1="61.0669" y1="43.1067" x2="61.0669" y2="-5.9983" gradientTransform="matrix(1 0 0 -1 0 82.0434)">
	<stop  offset="0" style="stop-color:#DCE7EC"/>
	<stop  offset="1" style="stop-color:#839297"/>
</linearGradient>
<path class="st3" d="M44.3,36.7l-42.2,40l0,0.1h118l-0.1-0.1l-42.2-40C67.1,26.5,55.3,26.3,44.3,36.7L44.3,36.7z"/>
<path class="st4" d="M44.3,38.2L2.1,2.3l0-0.1h117.9l-0.1,0.1L77.7,38.2C67,47.2,55.3,47.5,44.3,38.2L44.3,38.2z"/>
</svg>
